# xmcd
#
# Track frame offsets: 
#        150
#        18320
#        47030
#        73072
#        92297
#        121100
#        129250
#        144520
#        169187
#        187585
#        202987
#        223742
#        236407
#
# Disc length: 3422 seconds
#
# Revision: 4
# Processed by: cddbd v1.5.2PL0 Copyright (c) Steve Scherf et al.
# Submitted via: ExactAudioCopyFreeDBPlugin 1.0
#
DISCID=a60d5c0d
DTITLE=David Qualey - Blue house
DYEAR=1995
DGENRE=Acoustic
TTITLE0=Homage To A Blue House
TTITLE1=Blue Waltz
TTITLE2=Vincent
TTITLE3=Good Time
TTITLE4=First Moment
TTITLE5=It's A Wiegenlied
TTITLE6=Puntarenas
TTITLE7=Manuelita
TTITLE8=Mom's Rag
TTITLE9=Home On The Range
TTITLE10=Jesu, Joy Of Man's Desiring
TTITLE11=Melancholy 1
TTITLE12=Costa Rica Skies
EXTD=
EXTT0=
EXTT1=
EXTT2=
EXTT3=
EXTT4=
EXTT5=
EXTT6=
EXTT7=
EXTT8=
EXTT9=
EXTT10=
EXTT11=
EXTT12=
PLAYORDER=
